# xmcd
#
# Track frame offsets:
# 150
# 11315
# 26790
# 43590
# 62325
# 79855
# 98720
# 128470
# 147920
# 169475
# 184430
# 203160
# 219495
# 240515
# 258970
#
# Disc length: 3636 seconds
#
#
# Revision: 0
# Processed by: cddbd v1.5.2PL0 Copyright (c) Steve Scherf et al.
# Submitted via: FreeRIP 2.951 
#
DISCID=c80e320f
DTITLE=Fafá de Belém - Perfil - 
DYEAR=1900
DGENRE=
TTITLE0=Atrevida
TTITLE1=Menestrel das Alagoas
TTITLE2=Vermelho
TTITLE3=Coração do Agreste
TTITLE4=Meu Homem
TTITLE5=Nuvem de Lágrimas
TTITLE6=Romaria
TTITLE7=Nos Bailes da Vida
TTITLE8=Meu Disfarce
TTITLE9=Coração Aprendiz
TTITLE10=Canário do Reino
TTITLE11=Filho da Bahia
TTITLE12=Ilusão á Toa
TTITLE13=Peixinho
TTITLE14=Tamba-Tajá
EXTD=
EXTT0=
EXTT1=
EXTT2=
EXTT3=
EXTT4=
EXTT5=
EXTT6=
EXTT7=
EXTT8=
EXTT9=
EXTT10=
EXTT11=
EXTT12=
EXTT13=
EXTT14=
PLAYORDER=
